Two horror tales based on short stories by Edgar Allan Poe directed by two famous horror directors, George A. Romero and Dario Argento.
 
http://www.imdb.com/title/tt0100827

General 
Unique ID : 190039359772207657914037449316825080056 (0x8EF83FD60A57EFB389F14DE71518A0F8) 
Complete name : CTwo.Evil.Eyes.1990.720p.BluRay.x264-CiNEFiLE.mkv 
Format : Matroska 
File size : 6.56 GiB 
Duration : 1h 59mn 
Overall bit rate : 7 831 Kbps 
Encoded date : UTC 2009-04-02 01:18:26 
Writing application : mkvmerge v2.4.0 ('Fumbling Towards Ecstasy') built on Oct 11 2008 20:13:15 
Writing library : libebml v0.7.7 + libmatroska v0.8.1 
Video #1 
ID : 1 
Format : AVC 
Format/Info : Advanced Video Codec 
Format profile : High@L3.1 
Format settings, CABAC : Yes 
Format settings, ReFrames : 5 frames 
Codec ID : V_MPEG4/ISO/AVC 
Duration : 1h 59mn 
Bit rate : 6 319 Kbps 
Width : 1 280 pixels 
Height : 720 pixels 
Display aspect ratio : 16:9 
Frame rate : 23.976 fps 
Color space : YUV 
Chroma subsampling : 4:2:0 
Bit depth : 8 bits 
Scan type : Progressive 
Bits/(Pixel*Frame) : 0.286 
Stream size : 5.16 GiB (79%) 
Writing library : x264 core 67 r1134 b8808bf 
Encoding settings : cabac=1 / ref=5 / deblock=1:0:0 / analyse=0x3:0x113 / me=umh / subme=7 / psy_rd=1.0:0.0 / mixed_ref=1 / me_range=16 / chroma_me=1 / trellis=1 / 8x8dct=1 / cqm=0 / deadzone=21,11 / chroma_qp_offset=-2 / threads=12 / nr=0 / decimate=1 / mbaff=0 / bframes=3 / b_pyramid=1 / b_adapt=1 / b_bias=0 / direct=1 / wpredb=1 / keyint=250 / keyint_min=25 / scenecut=40 / rc=2pass / bitrate=6319 / ratetol=1.0 / qcomp=0.60 / qpmin=10 / qpmax=51 / qpstep=4 / cplxblur=20.0 / qblur=0.5 / ip_ratio=1.40 / pb_ratio=1.30 / aq=1:1.00 
Language : English 
Audio #2 
ID : 2 
Format : DTS 
Format/Info : Digital Theater Systems 
Codec ID : A_DTS 
Duration : 1h 59mn 
Bit rate mode : Constant 
Bit rate : 1 510 Kbps 
Channel(s) : 6 channels 
Channel positions : Front: L C R, Side: L R, LFE 
Sampling rate : 48.0 KHz 
Bit depth : 24 bits 
Compression mode : Lossy 
Stream size : 1.26 GiB (19%) 
Language : English 
Text #3 
ID : 3 
Format : UTF-8 
Codec ID : S_TEXT/UTF8 
Codec ID/Info : UTF-8 Plain Text 
Language : English